<svg width="19" height="15" viewBox="0 0 19 15" fill="none" xmlns="http://www.w3.org/2000/svg">
<path d="M9.5 11.8542C10.5938 11.8542 11.5236 11.5077 12.2895 10.8147C13.0554 10.1217 13.4381 9.28072 13.4375 8.29167C13.4375 7.30208 13.0545 6.46081 12.2886 5.76783C11.5227 5.07486 10.5932 4.72864 9.5 4.72917C8.40625 4.72917 7.47642 5.07565 6.7105 5.76862C5.94458 6.4616 5.56192 7.30261 5.5625 8.29167C5.5625 9.28125 5.94546 10.1225 6.71138 10.8155C7.47729 11.5085 8.40683 11.8547 9.5 11.8542ZM2.5 14.625C2.01875 14.625 1.60663 14.4698 1.26363 14.1595C0.920626 13.8492 0.749418 13.4766 0.750001 13.0417V3.54167C0.750001 3.10625 0.921502 2.73338 1.2645 2.42304C1.6075 2.11271 2.01933 1.95781 2.5 1.95833H5.25625L6.875 0.375H12.125L13.7438 1.95833H16.5C16.9813 1.95833 17.3934 2.1135 17.7364 2.42383C18.0794 2.73417 18.2506 3.10678 18.25 3.54167V13.0417C18.25 13.4771 18.0785 13.85 17.7355 14.1603C17.3925 14.4706 16.9807 14.6255 16.5 14.625H2.5Z" fill="#303145"/>
</svg>
