<svg width="40" height="40" viewBox="0 0 40 40" fill="none" xmlns="http://www.w3.org/2000/svg">
<g clip-path="url(#clip0_120_1817)">
<path d="M19.7063 39.4127C30.5899 39.4127 39.4127 30.5899 39.4127 19.7063C39.4127 8.82283 30.5899 0 19.7063 0C8.82283 0 0 8.82283 0 19.7063C0 30.5899 8.82283 39.4127 19.7063 39.4127Z" fill="white"/>
<path d="M24.6607 20.4778H21.1443V33.3601H15.8168V20.4778H13.283V15.9504H15.8168V13.0207C15.8168 10.9257 16.812 7.64502 21.1918 7.64502L25.1381 7.66153V12.0561H22.2748C21.8051 12.0561 21.1447 12.2908 21.1447 13.2902V15.9546H25.1261L24.6607 20.4778Z" fill="#A55C3D"/>
</g>
<defs>
<clipPath id="clip0_120_1817">
<rect width="39.4127" height="39.4127" fill="white"/>
</clipPath>
</defs>
</svg>
