<svg width="40" height="41" viewBox="0 0 40 41" fill="none" xmlns="http://www.w3.org/2000/svg">
<g clip-path="url(#clip0_120_1821)">
<rect x="6.06348" y="6.85693" width="27.2857" height="27.2857" fill="#A55C3D"/>
<path d="M25.5798 11.2793H13.833C11.958 11.2793 10.4326 12.8047 10.4326 14.6797V26.4265C10.4326 28.3014 11.958 29.8273 13.833 29.8273H25.5798C27.4547 29.8273 28.9806 28.3019 28.9806 26.4265V14.6797C28.9806 12.8047 27.4552 11.2793 25.5798 11.2793ZM19.7064 26.6592C16.3398 26.6592 13.6007 23.9201 13.6007 20.5531C13.6007 17.1865 16.3398 14.4474 19.7064 14.4474C23.0734 14.4474 25.8125 17.1865 25.8125 20.5531C25.8125 23.9197 23.073 26.6592 19.7064 26.6592ZM26.0088 15.7098C25.2118 15.7098 24.5637 15.0617 24.5637 14.2652C24.5637 13.4686 25.2118 12.8205 26.0088 12.8205C26.8053 12.8205 27.4534 13.4686 27.4534 14.2652C27.4534 15.0617 26.8053 15.7098 26.0088 15.7098Z" fill="white"/>
<path d="M19.7059 17.0273C17.7624 17.0273 16.1799 18.609 16.1799 20.5524C16.1799 22.4968 17.7624 24.0788 19.7059 24.0788C21.6502 24.0788 23.2314 22.4968 23.2314 20.5524C23.2314 18.6094 21.6498 17.0273 19.7059 17.0273Z" fill="white"/>
<path d="M19.7063 0.793457C8.82327 0.793457 0 9.61672 0 20.4998C0 31.3829 8.82327 40.2062 19.7063 40.2062C30.5894 40.2062 39.4127 31.3829 39.4127 20.4998C39.4127 9.61672 30.5894 0.793457 19.7063 0.793457ZM31.5603 26.4263C31.5603 29.7244 28.8778 32.4069 25.5797 32.4069H13.833C10.5353 32.4069 7.85242 29.7244 7.85242 26.4263V14.6795C7.85242 11.3819 10.5353 8.699 13.833 8.699H25.5797C28.8778 8.699 31.5603 11.3819 31.5603 14.6795V26.4263Z" fill="white"/>
</g>
<defs>
<clipPath id="clip0_120_1821">
<rect width="39.4127" height="39.4127" fill="white" transform="translate(0 0.793457)"/>
</clipPath>
</defs>
</svg>
