<svg width="40" height="40" viewBox="0 0 40 40" fill="none" xmlns="http://www.w3.org/2000/svg">
<g clip-path="url(#clip0_120_1827)">
<path d="M19.7063 39.9991C30.5899 39.9991 39.4127 31.1763 39.4127 20.2928C39.4127 9.40926 30.5899 0.586426 19.7063 0.586426C8.82283 0.586426 0 9.40926 0 20.2928C0 31.1763 8.82283 39.9991 19.7063 39.9991Z" fill="white"/>
<path d="M31.4812 21.8791V30.0036H26.7708V22.4236C26.7708 20.5203 26.0907 19.2206 24.3852 19.2206C23.0837 19.2206 22.3105 20.0956 21.9691 20.9429C21.8451 21.2457 21.8131 21.6662 21.8131 22.0909V30.0032H17.1024C17.1024 30.0032 17.1656 17.1652 17.1024 15.8363H21.8135V17.8439C21.804 17.8597 21.7906 17.8751 21.7822 17.8903H21.8135V17.8439C22.4395 16.8807 23.5558 15.5036 26.0587 15.5036C29.1578 15.5036 31.4812 17.5284 31.4812 21.8791ZM12.1746 9.00732C10.5632 9.00732 9.50903 10.065 9.50903 11.4547C9.50903 12.8149 10.5327 13.9032 12.1128 13.9032H12.1433C13.7863 13.9032 14.8078 12.8149 14.8078 11.4547C14.7765 10.065 13.7863 9.00732 12.1746 9.00732ZM9.78901 30.0036H14.498V15.8363H9.78901V30.0036Z" fill="#A55C3D"/>
</g>
<defs>
<clipPath id="clip0_120_1827">
<rect width="39.4127" height="39.4127" fill="white" transform="translate(0 0.587402)"/>
</clipPath>
</defs>
</svg>
