<svg width="69" height="56" viewBox="0 0 69 56" fill="none" xmlns="http://www.w3.org/2000/svg">
<path d="M16.134 34.2468C16.0628 34.0926 15.9842 33.9943 15.9746 33.8898C15.8683 32.769 15.7759 31.6462 15.6643 30.5265C15.6388 30.2677 15.7302 30.2181 15.9672 30.2191C20.3862 30.2248 24.8049 30.2248 29.2233 30.2191H36.9804C37.4384 30.2191 37.483 30.2688 37.3704 30.705C37.1685 31.4846 36.9645 32.2641 36.7509 33.0394C36.6531 33.3954 36.7753 33.7144 36.8763 34.0387C37.2057 35.083 37.5379 36.1266 37.873 37.1696C38.1025 37.8804 38.3469 38.5871 38.5743 39.299C38.8378 40.1219 39.0865 40.95 39.349 41.774C39.7379 42.9908 40.1353 44.2034 40.5232 45.4224C40.7931 46.2674 41.0545 47.1188 41.3212 47.9649C41.4954 48.5078 41.6846 49.0455 41.8918 49.6613C42.0151 49.2684 42.1235 48.9356 42.2255 48.5997C42.5676 47.4674 42.9087 46.3347 43.2488 45.2016C43.5102 44.3207 43.7588 43.4344 44.0234 42.5535C44.5282 40.875 45.0425 39.1998 45.5472 37.5213C45.8075 36.652 46.0519 35.7784 46.3123 34.9091C46.4334 34.5035 46.6119 34.1105 46.6885 33.6986C46.7252 33.4347 46.693 33.1659 46.5949 32.918C46.3197 32.1786 46.0084 31.4529 45.7045 30.7251C45.5525 30.3586 45.6365 30.2191 46.0233 30.2191C47.5109 30.2191 48.9986 30.2191 50.4862 30.2191C50.5658 30.213 50.6459 30.2176 50.7243 30.2329C50.9017 30.2836 50.9251 30.4346 50.7817 30.6057C50.3513 31.118 49.9177 31.6272 49.4874 32.1395C49.2292 32.4458 48.9327 32.731 48.7276 33.0701C48.5414 33.4038 48.3958 33.7584 48.2941 34.1264C47.9753 35.1362 47.6799 36.1513 47.3813 37.1674C47.1889 37.8234 47.0147 38.4868 46.8202 39.1427C46.596 39.899 46.3527 40.649 46.1263 41.4042C45.8713 42.2493 45.6301 43.1038 45.3772 43.9531C45.1455 44.7316 44.9022 45.5069 44.6716 46.2864C44.4803 46.934 44.3071 47.5868 44.1159 48.2332C43.8916 48.9906 43.6536 49.7437 43.4283 50.5C43.1446 51.4507 42.8673 52.4014 42.5889 53.352C42.5884 53.3876 42.5927 53.4232 42.6016 53.4576H42.8853C45.7374 53.4576 48.5888 53.4576 51.4394 53.4576C51.6317 53.4576 51.7582 53.4249 51.8506 53.221C52.0504 52.7816 52.298 52.3633 52.5148 51.9302C52.5561 51.8339 52.5754 51.7296 52.5711 51.625C52.5711 45.6041 52.5679 39.5832 52.5615 33.5623C52.5615 33.2634 52.4191 32.9592 52.3129 32.6676C52.0589 31.9705 51.7816 31.2807 51.5244 30.5857C51.4298 30.3332 51.5382 30.2117 51.8517 30.2107C53.605 30.2107 55.3583 30.2107 57.1117 30.2107H61.9296C61.9264 30.1277 61.915 30.0453 61.8956 29.9646C61.6246 29.2146 61.3313 28.4731 61.0858 27.7157C60.9923 27.4284 60.8255 27.4231 60.5928 27.4231C42.2449 27.4231 23.8971 27.4231 5.54927 27.4231C3.84909 27.4231 2.1489 27.4231 0.448714 27.4231C0.0236675 27.4231 -0.0825941 27.2625 0.0767983 26.8612C0.412585 26.0063 0.741288 25.1443 1.06291 24.2753C1.08205 24.1984 1.0878 24.1187 1.07991 24.0398C1.07991 18.0372 1.07637 12.0339 1.06928 6.02992C1.06928 5.74367 0.91839 5.45213 0.816379 5.17115C0.566664 4.47611 0.292509 3.78952 0.0470451 3.09236C-0.0730305 2.75435 0.0470451 2.61597 0.41046 2.61597C2.53569 2.61597 4.66092 2.59379 6.78616 2.62231C9.39913 2.65717 11.5148 3.72192 13.131 5.76479C14.0151 6.88236 14.6187 8.13935 15.0778 9.48401C15.8843 11.8565 16.0415 14.2944 15.8662 16.7651C15.7888 17.8951 15.5842 19.013 15.2563 20.0977C14.6761 21.999 13.8175 23.7567 12.3575 25.1679C12.1152 25.4024 11.8548 25.6179 11.5679 25.8725H23.1164C23.0229 25.5556 22.9358 25.2387 22.837 24.9302C22.6765 24.4285 22.5033 23.931 22.3418 23.4292C22.0793 22.6096 21.8222 21.7888 21.5608 20.9691C21.2696 20.0593 20.9774 19.1502 20.6841 18.2418C20.4865 17.6291 20.2835 17.0175 20.088 16.4038C19.8925 15.7901 19.7097 15.187 19.5152 14.5796C19.1911 13.5666 18.8596 12.5547 18.5355 11.5417C18.2369 10.6079 17.9479 9.67098 17.6493 8.73827C17.4261 8.03794 17.1509 7.35135 16.9756 6.64046C16.7206 5.60424 15.964 4.89018 15.4029 4.05042C15.1798 3.71558 14.9279 3.4008 14.7058 3.06701C14.6733 3.02064 14.651 2.96802 14.6402 2.91253C14.6294 2.85704 14.6304 2.79992 14.6431 2.74484C14.675 2.67407 14.8312 2.62442 14.9322 2.62337C16.6324 2.61703 18.3325 2.62337 20.0327 2.62337C20.4493 2.62337 20.4259 2.85892 20.3515 3.1906C20.2293 3.70501 20.0859 4.21309 19.9477 4.72223C19.8627 5.03912 19.7692 5.35601 19.6831 5.6729C19.6578 5.73734 19.6501 5.80733 19.6608 5.8757C19.8872 6.57286 20.1284 7.26473 20.3526 7.96295C20.6097 8.75939 20.8509 9.56007 21.1049 10.3576C21.4343 11.3927 21.7733 12.4247 22.1016 13.4589C22.3333 14.1856 22.5479 14.9176 22.7807 15.6443C23.2057 16.9721 23.6392 18.2978 24.0664 19.6255C24.3002 20.3501 24.5255 21.0779 24.7582 21.8025C24.7957 21.8874 24.8401 21.969 24.891 22.0466C25.0217 21.624 25.1439 21.2543 25.2544 20.8783C25.4468 20.2297 25.6274 19.578 25.8208 18.9294C26.0429 18.1837 26.2713 17.439 26.4977 16.6932C26.7697 15.7986 27.046 14.9049 27.3127 14.0081C27.505 13.3596 27.6804 12.7068 27.8748 12.0582C28.1341 11.1952 28.4061 10.3354 28.6697 9.47239C28.9576 8.51539 29.2371 7.55522 29.5198 6.5961C29.546 6.48559 29.5816 6.37746 29.626 6.27287C29.897 5.73627 29.5315 5.3127 29.3689 4.8606C29.1425 4.23422 28.8737 3.62368 28.625 3.00363C28.5464 2.80399 28.642 2.65928 28.862 2.6297C28.9236 2.626 28.9853 2.626 29.0469 2.6297H33.4036C33.492 2.62404 33.5807 2.6308 33.6672 2.64977C33.8627 2.70787 33.8871 2.87265 33.733 3.05962C33.0604 3.87085 32.3729 4.67153 31.7204 5.49966C31.5398 5.72994 31.4431 6.03309 31.3422 6.31618C31.2146 6.67532 31.1179 7.04714 31.0159 7.41473C30.9992 7.51953 30.9911 7.62551 30.9915 7.73162C31.2508 7.55205 31.4622 7.40839 31.6716 7.26157L38.7465 2.29063C39.3171 1.88079 39.8835 1.48573 40.4466 1.07906C40.5062 1.02685 40.5829 0.998047 40.6624 0.998047C40.7418 0.998047 40.8185 1.02685 40.8781 1.07906C42.5875 2.28676 44.2986 3.4927 46.0116 4.69688L51.0569 8.2492C51.466 8.53652 51.8751 8.82594 52.2863 9.1122C52.3607 9.16396 52.4457 9.20093 52.5785 9.27381V8.93791C52.5785 8.09287 52.5573 7.24783 52.587 6.4028C52.604 5.93169 52.4808 5.51128 52.3139 5.08559C52.0447 4.39407 51.7823 3.69973 51.5265 3.00258C51.449 2.79132 51.5574 2.64449 51.7858 2.61914C51.8478 2.61544 51.9099 2.61544 51.9718 2.61914C54.0619 2.61914 56.1521 2.60224 58.2412 2.61914C59.7384 2.63499 61.1953 2.86737 62.5331 3.59938C63.8448 4.30646 64.8892 5.41881 65.5084 6.76827C65.848 7.51093 66.0976 8.291 66.2523 9.09213C66.4761 10.1688 66.5309 11.2733 66.4149 12.3666C66.1736 14.6968 65.3087 16.7598 63.4767 18.321C62.5501 19.1127 61.4161 19.6263 60.2071 19.8019C59.8947 19.8495 59.5801 19.8843 59.2273 19.9287C59.5323 20.123 59.8118 20.31 60.1008 20.4811C60.9828 21.0093 61.6087 21.773 62.1198 22.6391C62.8859 23.9468 63.4215 25.357 63.9496 26.7714C64.4511 28.1118 64.9389 29.4596 65.5074 30.7716C65.9613 31.8563 66.6005 32.8547 67.3967 33.7229C67.5721 33.9098 67.7835 34.0619 68.0045 34.251C67.8445 34.3079 67.6804 34.3528 67.5136 34.3852C66.2076 34.5278 65.0377 34.2098 64.0899 33.2824C63.6808 32.882 63.346 32.4088 62.9773 31.9641C62.9282 31.8887 62.8608 31.8267 62.7814 31.7839C62.7019 31.7411 62.6129 31.7188 62.5225 31.7191C60.2729 31.7275 58.0244 31.7243 55.7749 31.7243C55.4561 31.7243 55.4168 31.7624 55.4168 32.0687C55.4168 35.2643 55.4168 38.4596 55.4168 41.6546C55.4168 41.8901 55.4912 41.9514 55.7218 41.9504C57.3072 41.9408 58.8915 41.9334 60.477 41.9504C61.734 41.962 62.5257 41.2933 63.0867 40.2603C63.209 40.0353 63.3131 39.8008 63.4438 39.5335C63.9687 40.1673 64.2811 40.8412 64.143 41.6366C64.0686 42.0592 63.7063 42.2863 63.3482 42.4764C63.1728 42.5693 62.9826 42.6369 62.7765 42.7267C62.9837 42.8102 63.1792 42.8767 63.363 42.9655C64.0388 43.294 64.2248 43.632 64.1536 44.3746C64.0994 44.9439 63.8274 45.4108 63.4491 45.8798C63.3173 45.6073 63.2121 45.3632 63.0857 45.1309C62.6819 44.3915 62.1378 43.7968 61.2867 43.5697C61.0454 43.514 60.7979 43.4888 60.5503 43.4947C58.9564 43.4883 57.3624 43.4947 55.7685 43.4947C55.4359 43.4947 55.421 43.5084 55.421 43.8348V53.1302C55.421 53.4598 55.4274 53.4661 55.7685 53.4661C58.5398 53.4661 61.3115 53.4661 64.0835 53.4661C64.1567 53.4726 64.2305 53.4605 64.2978 53.4309C64.365 53.4014 64.4237 53.3553 64.4681 53.2971C65.3409 52.233 66.2215 51.1768 67.1098 50.1282C67.1943 50.0552 67.2896 49.9957 67.3925 49.9518C67.4212 50.0574 67.4987 50.18 67.4732 50.2803C67.2926 51.1929 67.0981 52.1024 66.9047 53.0129C66.7889 53.5527 66.6582 54.0893 66.5519 54.6322C66.4797 54.9988 66.4946 55.002 66.1195 55.002H0.734558C0.575165 55.002 0.415773 55.002 0.25638 55.002C0.0969881 55.002 -0.00821094 54.9122 0.0289806 54.7558C0.0976898 54.4693 0.183561 54.1871 0.286134 53.9108C0.540099 53.221 0.810004 52.5376 1.06716 51.85C1.08521 51.7728 1.08988 51.6931 1.08097 51.6144C1.08097 45.6203 1.07743 39.6258 1.07034 33.631C1.07034 33.3415 0.935392 33.0458 0.832318 32.7637C0.579416 32.0708 0.30101 31.3906 0.0481077 30.6934C-0.0719679 30.3638 0.0321685 30.2297 0.366893 30.2297C2.80241 30.2297 5.23899 30.1853 7.67132 30.2614C9.61059 30.3226 11.3905 30.9057 12.7995 32.3328C13.4992 33.0606 14.0222 33.9379 14.3286 34.8975C14.6402 35.7952 14.8191 36.7331 14.8599 37.6819C14.879 38.2163 14.9662 38.7529 14.9258 39.2832C14.8694 39.9606 14.7736 40.6343 14.6389 41.3007C14.4227 42.4139 13.9715 43.4687 13.3149 44.3957C12.4998 45.6013 11.3322 46.5293 9.96975 47.0544C8.78069 47.5181 7.55549 47.5371 6.32923 47.4262C5.47622 47.3432 4.65383 47.0663 3.92559 46.6171C3.91922 46.747 3.91178 46.8389 3.91178 46.934C3.91178 48.3779 3.92028 49.8219 3.90434 51.2648C3.8937 51.6006 3.97135 51.9334 4.12962 52.2302C4.31132 52.5651 4.48453 52.9063 4.66092 53.2474C4.68978 53.319 4.74122 53.3793 4.80753 53.4193C4.87383 53.4593 4.95141 53.4769 5.02859 53.4693C9.17279 53.4636 13.317 53.4636 17.4612 53.4693C17.6822 53.4693 17.78 53.371 17.8576 53.2073C18.0573 52.808 18.2698 52.414 18.4569 52.0084C18.5307 51.8514 18.5708 51.6809 18.5748 51.5077C18.5812 47.7663 18.5748 44.026 18.5908 40.2846C18.5898 39.681 18.4696 39.0834 18.2369 38.5258C17.9755 37.8688 17.7297 37.2062 17.4995 36.5379C17.475 36.4682 17.594 36.3361 17.6673 36.2527C17.696 36.221 17.7864 36.2411 17.848 36.2411H21.8062C22.142 36.2411 22.2313 36.3625 22.1165 36.6837C21.8073 37.5287 21.4853 38.3737 21.175 39.2188C21.124 39.3486 21.096 39.4861 21.0922 39.6254C21.0922 43.613 21.0805 47.6005 21.1038 51.588C21.1038 51.8954 21.3164 52.2059 21.4492 52.507C21.5608 52.7615 21.7042 53.0034 21.8264 53.2538C21.8496 53.3197 21.8941 53.3761 21.9529 53.4143C22.0117 53.4525 22.0815 53.4704 22.1516 53.465C23.3205 53.4587 24.4893 53.4587 25.6582 53.465C25.7269 53.4674 25.7946 53.4483 25.8518 53.4104C25.909 53.3725 25.9528 53.3177 25.977 53.2538C26.2033 52.8101 26.4297 52.3654 26.6454 51.9165C26.6907 51.8129 26.7132 51.7009 26.7113 51.588C26.7113 45.0749 26.7138 38.5611 26.7187 32.0465C26.7187 31.7919 26.6411 31.7169 26.385 31.718C23.7285 31.7265 21.072 31.7265 18.4154 31.718C18.3206 31.7113 18.2258 31.7301 18.1407 31.7722C18.0557 31.8144 17.9836 31.8785 17.9319 31.9578C17.4261 32.6317 16.9054 33.294 16.389 33.9595C16.3306 34.0408 16.2583 34.1073 16.134 34.2468ZM45.0765 25.8777C45.1264 25.8861 45.1768 25.8917 45.2274 25.8946C47.3345 25.8946 49.4417 25.8946 51.5489 25.8883C51.604 25.8785 51.6564 25.8571 51.7026 25.8256C51.7487 25.7941 51.7876 25.7532 51.8166 25.7056C51.9678 25.466 52.1017 25.2161 52.2172 24.9577C52.3756 24.5986 52.5902 24.2743 52.587 23.837C52.5668 20.6417 52.5764 17.4474 52.5764 14.2521C52.5764 13.2222 52.5764 12.1924 52.57 11.1625C52.5693 11.1012 52.556 11.0408 52.531 10.9849C52.506 10.9289 52.4697 10.8787 52.4245 10.8371C52.0238 10.5635 51.6041 10.3185 51.1929 10.0618L45.2422 6.35843C43.7744 5.44297 42.3087 4.52752 40.8451 3.61206C40.7908 3.5694 40.7233 3.54681 40.6541 3.54816C40.5849 3.54951 40.5183 3.57471 40.4658 3.61945C40.1151 3.85078 39.7496 4.0631 39.3925 4.28703C36.5164 6.09189 33.6399 7.89499 30.763 9.69633C30.4442 9.89491 30.2073 10.0882 30.1053 10.4896C29.8502 11.4899 29.5251 12.4723 29.2307 13.4631C29.0097 14.2088 28.7983 14.9577 28.573 15.7035C28.3477 16.4492 28.1022 17.2066 27.8759 17.9608C27.7165 18.4889 27.5794 19.0319 27.4211 19.5643C27.1246 20.5635 26.8218 21.5607 26.52 22.5589C26.2862 23.3352 26.0471 24.1106 25.8165 24.888C25.7209 25.2049 25.6412 25.5366 25.5488 25.8799H36.2047C36.1972 25.8471 36.2047 25.8239 36.1898 25.8165C36.1112 25.7499 36.0325 25.6834 35.9497 25.6232C34.2601 24.3989 33.2612 22.7099 32.6555 20.7642C32.0257 18.6028 31.9945 16.3125 32.5652 14.1349C32.8265 13.1388 33.242 12.1891 33.7968 11.3199C35.2809 8.98896 37.4019 7.70979 40.1597 7.48233C41.1114 7.41375 42.0676 7.5212 42.9799 7.79922C44.3456 8.19234 45.573 8.95828 46.5227 10.01C48.1474 11.792 48.9231 13.931 49.1048 16.2866C49.1728 17.1559 49.1048 18.0421 49.0135 18.9125C48.9381 19.5721 48.8033 20.2236 48.6107 20.8593C48.1357 22.4986 47.2963 23.931 46.019 25.0845C45.7257 25.3591 45.4101 25.602 45.0765 25.8777ZM3.91072 25.676C4.30495 25.7478 4.67155 25.8439 5.04453 25.8767C6.02037 25.9758 7.00626 25.8678 7.93697 25.5598C9.24611 25.1109 10.2386 24.2553 10.9771 23.0965C11.7507 21.8807 12.1726 20.5329 12.4223 19.1365C12.582 18.2283 12.6835 17.311 12.7262 16.3901C12.8091 14.6673 12.7676 12.9466 12.4637 11.2385C12.3086 10.2962 12.0627 9.37081 11.7294 8.47525C11.3257 7.4274 10.7731 6.48202 9.9655 5.69719C9.00915 4.77293 7.86577 4.23316 6.53857 4.16133C5.79474 4.1212 5.0424 4.20147 4.29538 4.24795C3.90965 4.27225 3.91072 4.29337 3.91072 4.67786V25.676ZM40.1204 53.4661C40.126 53.4312 40.1278 53.3958 40.1257 53.3605C39.6104 51.7412 39.0982 50.1219 38.5764 48.5015C38.1758 47.2582 37.7604 46.0213 37.3555 44.7791C36.7611 42.9524 36.1696 41.1247 35.5809 39.2959C35.2041 38.1234 34.8297 36.9502 34.4577 35.7763C34.1995 34.9608 33.9466 34.1433 33.6895 33.3267C33.5492 32.8831 33.41 32.4384 33.2591 31.9979C33.2404 31.9102 33.189 31.8328 33.1153 31.7811C33.0417 31.7294 32.9511 31.7073 32.8617 31.7191C31.8968 31.7402 30.932 31.7275 29.9671 31.7275C29.5516 31.7275 29.5506 31.7275 29.5506 32.1331C29.5506 38.5413 29.5506 44.9495 29.5506 51.3577C29.5407 51.6294 29.6046 51.8986 29.7355 52.1373C29.9374 52.4922 30.1127 52.864 30.2838 53.2358C30.3752 53.4355 30.5144 53.4756 30.7205 53.4745C33.7575 53.4682 36.7941 53.4682 39.8303 53.4745L40.1204 53.4661ZM35.2866 17.2573L35.3546 17.2647C35.3351 18.3356 35.4392 19.4053 35.6649 20.4526C35.8204 21.2229 36.0702 21.9714 36.4087 22.6814C37.178 24.2331 38.2619 25.3633 40.096 25.6147C40.8642 25.7216 41.6472 25.6179 42.3604 25.3147C43.5293 24.8299 44.3008 23.9204 44.8597 22.8176C45.6035 21.3462 45.8777 19.7544 45.9648 18.134C46.037 16.8424 45.9442 15.5469 45.6885 14.2785C45.4813 13.256 45.17 12.2716 44.6259 11.379C43.8481 10.084 42.778 9.17241 41.2 8.99284C39.537 8.80481 38.2045 9.39951 37.1621 10.6829C36.2865 11.7667 35.8381 13.0437 35.5926 14.3799C35.4237 15.3274 35.3854 16.2982 35.2866 17.2573ZM3.91072 38.586C3.91072 40.7155 3.91072 42.844 3.90434 44.9735C3.90434 45.1847 3.96916 45.3041 4.15724 45.358C4.70555 45.5143 5.24643 45.7224 5.80536 45.8027C7.43116 46.0361 8.83063 45.5502 9.96232 44.3534C11.043 43.2084 11.5562 41.7877 11.6742 40.2761C11.8166 38.4625 11.8431 36.6287 11.2885 34.8531C10.9941 33.9119 10.5064 33.1039 9.65522 32.5451C8.83913 32.0095 7.91253 31.8057 6.96999 31.7328C6.06677 31.6599 5.15185 31.6388 4.25075 31.8194C4.03823 31.8617 3.90222 31.925 3.90328 32.1986C3.91709 34.3281 3.91072 36.4566 3.91072 38.586ZM55.4125 10.9787V12.0075C55.4125 13.7768 55.4125 15.5461 55.4062 17.3143C55.4062 17.5921 55.5124 17.7369 55.76 17.8129C56.133 17.927 56.5038 18.0633 56.88 18.1446C57.7409 18.338 58.638 18.3016 59.4802 18.039C60.6045 17.6904 61.4248 16.9763 62.0613 16.0214C62.905 14.7539 63.1866 13.3194 63.2748 11.8427C63.3341 10.6769 63.2405 9.5083 62.9964 8.36645C62.8757 7.75143 62.669 7.15625 62.3822 6.59821C61.5545 5.01377 60.1444 4.33774 58.4442 4.16873C57.5645 4.06111 56.6735 4.08639 55.8015 4.24373C55.4455 4.31555 55.4125 4.32612 55.4125 4.69899V10.9787ZM55.4519 19.1122C55.4321 19.2019 55.4193 19.293 55.4136 19.3847C55.4136 20.8888 55.4136 22.393 55.4136 23.8982C55.4145 24.0644 55.4507 24.2286 55.5199 24.3799C55.7324 24.814 55.9683 25.2323 56.1755 25.6665C56.2045 25.7428 56.2586 25.8072 56.329 25.8492C56.3993 25.8912 56.4819 25.9083 56.5633 25.8978C57.7492 25.8894 58.9351 25.8978 60.121 25.8925C60.2049 25.8925 60.2889 25.8841 60.3845 25.8777C60.3845 25.7991 60.3748 25.7207 60.3558 25.6443C59.9414 24.6376 59.5599 23.6162 59.0956 22.6328C58.3379 21.0272 57.2753 19.6963 55.4519 19.1153V19.1122Z" fill="#FDF5EC"/>
</svg>
