<svg width="40" height="40" viewBox="0 0 40 40" fill="none" xmlns="http://www.w3.org/2000/svg">
<g clip-path="url(#clip0_1513_12143)">
<rect x="9" y="33" width="28" height="21" transform="rotate(-90 9 33)" fill="#A55C3D"/>
<path d="M19.5 0C8.73044 0 0 8.73044 0 19.5C0 30.2696 8.73044 39 19.5 39C30.2696 39 39 30.2696 39 19.5C39 8.73044 30.2696 0 19.5 0ZM19.5 6.60553C24.8685 6.60553 29.2214 10.9585 29.2214 16.327C29.2214 17.9532 28.7758 20.0999 27.8598 21.3138L19.5 32.3945L11.1401 21.3139C10.1317 19.9774 9.77854 18.1224 9.77854 16.327C9.77857 10.9585 14.1315 6.60553 19.5 6.60553ZM19.5 12.2375C17.2412 12.2375 15.4105 14.0681 15.4105 16.327C15.4105 18.5858 17.2412 20.4164 19.5 20.4164C21.7588 20.4164 23.5895 18.5858 23.5895 16.327C23.5895 14.0681 21.7588 12.2375 19.5 12.2375Z" fill="white"/>
</g>
<defs>
<clipPath id="clip0_1513_12143">
<rect width="39.4127" height="39.4127" fill="white" transform="translate(0 39.4127) rotate(-90)"/>
</clipPath>
</defs>
</svg>
